<?xml version="1.0" encoding="utf-8" ?><svg xmlns="http://www.w3.org/2000/svg" xmlns:xlink="http://www.w3.org/1999/xlink" width="643" height="638" viewBox="0 0 643 638"><path fill="#FEFEFE" d="M318.444 241.736C323.31 235.182 333.971 224.363 339.991 218.808C383.29 178.858 442.46 155.796 498.657 140.689C516.128 135.942 533.783 131.898 551.578 128.566C558.275 127.349 561.121 127.119 566.819 131.064C571.083 135.712 571.285 138.612 571.361 144.782C571.411 148.839 571.414 152.966 571.417 157.031L571.42 185.529L571.438 275.227L571.397 410.831L571.306 456.362C571.276 464.076 571.241 471.817 571.162 479.535C571.116 484.005 570.341 484.287 569.663 487.588C567.115 491.96 564.951 493.406 559.957 494.441C545.723 497.392 531.106 497.826 516.956 501.36C514.131 502.066 510.633 501.916 507.753 502.58C504.036 503.381 500.386 504.806 496.722 505.685C460.607 514.093 425.51 526.39 392.046 542.362C375.711 550.276 359.904 559.236 344.725 569.187C338.083 573.569 331.753 578.248 325.052 582.534C322.535 584.144 321.118 585.947 318.039 587.328C315.506 586.014 307.647 580.187 304.933 578.236C297.707 572.934 290.302 567.88 282.73 563.085C257.272 547.075 229.993 534.331 201.774 524.01C197.497 522.446 193.037 520.486 188.742 519.09C171.892 513.802 154.823 508.638 137.616 504.61C127.437 502.227 116.752 500.459 106.546 497.889C103.646 497.159 99.8679 497.394 96.8664 496.937C89.6391 495.834 82.3271 495.161 75.1245 493.945C73.1081 493.607 70.4062 491.791 69.0458 490.288C66.9489 487.968 65.6926 485.01 65.4787 481.89C65.0538 475.789 65.3321 467.091 65.3341 460.801L65.3051 423.014L65.2833 302.87L65.3741 191.659L65.392 157.195C65.3781 151.475 65.2233 145.607 65.3831 139.92C65.4099 135.227 70.3871 129.075 75.0681 128.339C81.3918 127.344 90.4751 129.919 96.7462 131.265C105.856 133.201 114.939 135.265 123.99 137.457C184.92 152.19 250.952 176.305 297.431 219.503C303.411 225.06 313.388 235.235 318.444 241.736Z"/><path fill="#4EBF3D" d="M318.444 241.736C323.31 235.182 333.971 224.363 339.991 218.808C383.29 178.858 442.46 155.796 498.657 140.689C516.128 135.942 533.783 131.898 551.578 128.566C558.275 127.349 561.121 127.119 566.819 131.064C571.083 135.712 571.285 138.612 571.361 144.782C571.411 148.839 571.414 152.966 571.417 157.031L571.42 185.529L571.438 275.227L571.397 410.831L571.306 456.362C571.276 464.076 571.241 471.817 571.162 479.535C571.116 484.005 570.341 484.287 569.663 487.588C567.115 491.96 564.951 493.406 559.957 494.441C545.723 497.392 531.106 497.826 516.956 501.36C514.131 502.066 510.633 501.916 507.753 502.58C504.036 503.381 500.386 504.806 496.722 505.685C460.607 514.093 425.51 526.39 392.046 542.362C375.711 550.276 359.904 559.236 344.725 569.187C338.083 573.569 331.753 578.248 325.052 582.534C322.535 584.144 321.118 585.947 318.039 587.328L318.193 425.272L318.229 388.067C318.245 384.487 318.472 371.61 317.945 368.603C319.493 368.43 332.57 382.223 334.774 384.368C358.783 407.728 381.469 434.381 415.26 442.932C440.2 449.244 467.612 445.965 489.712 432.771C513.111 418.751 529.913 395.935 536.356 369.428C544.442 337.026 539.277 299.991 518.252 273.414C505.637 257.468 488.637 245.583 468.759 240.71C455.137 237.24 440.914 236.84 427.118 239.537C388.617 246.805 366.473 272.43 339.464 298.495C335.727 302.047 332.008 305.619 328.308 309.211C325.977 311.497 320.496 317.394 317.98 318.747C318.475 311.565 318.189 303.647 318.173 296.391L318.203 264.196C318.213 256.963 318.094 248.913 318.444 241.736Z"/><path fill="#008BDC" d="M318.039 587.328C315.506 586.014 307.647 580.187 304.933 578.236C297.707 572.934 290.302 567.88 282.73 563.085C257.272 547.075 229.993 534.331 201.774 524.01C197.497 522.446 193.037 520.486 188.742 519.09C171.892 513.802 154.823 508.638 137.616 504.61C127.437 502.227 116.752 500.459 106.546 497.889C103.646 497.159 99.8679 497.394 96.8664 496.937C89.6391 495.834 82.3271 495.161 75.1245 493.945C73.1081 493.607 70.4062 491.791 69.0458 490.288C66.9489 487.968 65.6926 485.01 65.4787 481.89C65.0538 475.789 65.3321 467.091 65.3341 460.801L65.3051 423.014L65.2833 302.87L65.3741 191.659L65.392 157.195C65.3781 151.475 65.2233 145.607 65.3831 139.92C65.4099 135.227 70.3871 129.075 75.0681 128.339C81.3918 127.344 90.4751 129.919 96.7462 131.265C105.856 133.201 114.939 135.265 123.99 137.457C184.92 152.19 250.952 176.305 297.431 219.503C303.411 225.06 313.388 235.235 318.444 241.736C318.094 248.913 318.213 256.963 318.203 264.196L318.173 296.391C318.189 303.647 318.475 311.565 317.98 318.747L289.537 290.358C261.689 262.474 235.187 237.937 193.09 237.765C99.075 237.383 66.7552 357.603 128.01 418.283C146.604 436.709 171.33 446.042 197.421 446.141C238.001 445.479 260.726 425.053 287.674 398.511L317.945 368.603C318.472 371.61 318.245 384.487 318.229 388.067L318.193 425.272L318.039 587.328Z"/><path fill="#4EBF3D" d="M441.889 273.944C471.266 271.34 496.695 293.475 502.758 321.507C506.287 337.826 504.646 357.275 498.194 372.64C491.966 387.723 479.947 399.676 464.831 405.822C447.976 412.618 429.705 412.007 413.099 404.867C396.066 397.583 377.086 375.703 363.376 362.797C359.028 358.704 347.845 347.917 343.984 343.503C352.558 334.583 361.764 325.904 370.643 317.238C391.999 296.398 410.126 275.685 441.889 273.944Z"/><path fill="#008BDC" d="M189.433 273.606C190.493 273.543 191.556 273.511 192.618 273.507C203.786 273.457 214.783 276.246 224.578 281.611C238.004 288.913 249.02 300.919 259.91 311.422C270.907 322.053 281.827 332.764 292.67 343.553C283.965 352.51 274.25 361.911 265.257 370.618C253.759 381.751 241.972 394.493 228.119 402.426C205.847 414.182 176.704 413.588 157.06 396.808C142.594 384.639 133.687 367.119 132.378 348.261C129.835 312.054 150.737 276.199 189.433 273.606Z"/><path fill="#FEBE18" d="M307.866 69.238C330.5 68.2229 346.768 69.56 367.639 78.71C377.825 83.2628 387.317 89.2308 395.835 96.4374C408.267 106.957 423.007 125.405 428.951 140.644C420.148 144.541 411.34 147.766 402.433 151.939C373.817 165.23 347.284 182.608 323.663 203.526C321.788 205.25 320.464 206.507 318.389 207.96C315.137 205.949 311.813 202.786 308.902 200.237C305.669 197.408 302.363 194.664 298.988 192.007C284.831 180.896 269.769 170.992 253.958 162.397C243.115 156.548 232.054 151.111 220.799 146.099C209.618 141.245 204.874 144.079 211.433 132.244C230.319 98.167 267.587 70.4748 307.866 69.238Z"/></svg>