<?xml version="1.0" encoding="utf-8" ?><svg xmlns="http://www.w3.org/2000/svg" xmlns:xlink="http://www.w3.org/1999/xlink" width="553" height="553" viewBox="0 0 553 553"><path fill="#0A5130" d="M259.279 47.9447C263.41 47.5402 268.361 48.7728 269.127 53.3961C269.976 58.5147 263.418 64.9297 260.355 68.6672C246.093 86.0646 234.085 104.862 222.635 124.188C219.774 129.017 216.991 134.026 214.234 138.922C211.383 144.037 209.19 148.907 205.836 153.794C215.01 155.459 224.397 158.362 233.979 159.766C273.593 165.57 313.615 164.361 352.212 153.449C347.102 146.147 343.182 136.134 338.533 128.263C325.123 105.557 310.865 83.0367 293.744 62.9141C290.968 60.4897 286.831 52.7381 291.004 49.7819C297.348 45.288 320.218 50.5114 326.749 51.9274C370.856 61.7205 411.353 83.6361 443.676 115.205C486.949 157.929 512.196 215.483 512.887 276.445C512.939 281.037 513.056 285.625 512.787 290.217C509.538 351.214 481.963 408.36 436.236 448.86C409.014 473.297 376.683 491.351 341.598 501.707C333.691 504.01 324.381 506.358 316.269 507.574C310.349 508.461 302.799 510.084 296.959 509.728C294.225 509.24 292.131 508.603 290.589 506.126C287.881 501.775 290.966 497.925 293.584 494.578C295.276 492.415 296.885 490.29 298.527 488.16C312.941 469.747 325.955 450.28 337.459 429.923C342.636 420.869 347.325 410.659 352.344 402.222C348.739 401.736 343.478 400.166 339.779 399.217C335.004 398.026 330.197 396.97 325.362 396.049C291.838 389.614 256.068 391.235 222.907 398.387C217.829 399.482 210.936 401.877 206.028 402.451C207.756 406.094 210.075 410.147 211.979 413.779C223.755 436.097 237.187 457.5 252.164 477.809C255.23 482 258.424 486.097 261.741 490.092C263.757 492.565 265.688 494.841 267.496 497.425C271.088 502.559 268.486 509.65 261.801 509.61C255.581 509.572 249.022 508.402 242.771 507.404C199.568 500.512 158.261 481.093 125.506 452.056C78.1883 410.251 48.4515 354.166 45.165 290.682C42.7023 243.11 57.3816 191.523 83.3576 151.761C89.9487 141.672 97.9005 131.482 106.125 122.645C117.07 110.884 133.071 96.7824 146.546 87.7129C177.507 66.8737 221.836 49.9355 259.279 47.9447ZM289.355 369.438C292.75 369.167 298.178 369.743 301.76 369.986C322.525 371.356 343.061 375.134 362.954 381.245C364.933 377.895 366.389 374.034 367.991 370.487C372.524 360.447 375.779 350.189 379.506 339.896C377.839 340.224 370.264 340.107 368.124 340.108C359.783 340.148 351.44 340.118 343.099 340.018C336.695 353.004 319.584 352.635 314.176 339.982C312.533 336.078 312.543 331.676 314.203 327.78C319.532 314.952 337.94 313.864 342.725 326.73C354.546 326.675 366.424 326.373 378.219 326.467L383.173 326.428C385.965 318.571 387.82 297.94 388.927 288.851L320.277 288.939L300.401 288.941C297.397 288.946 292.3 289.118 289.499 288.854C290.117 301.756 289.581 316.652 289.591 329.769L289.556 355.473C289.532 359.843 289.641 365.172 289.355 369.438ZM171.033 257.665C170.8 260.485 170.448 263.684 169.947 266.483C191.446 265.685 215.787 266.255 237.509 266.226L257.868 266.207C260.414 266.207 266.738 266.078 268.969 266.523C268.768 255.482 268.945 244.449 268.936 233.403C268.854 217.286 268.869 201.169 268.981 185.052C265.172 185.191 260.438 184.9 256.616 184.691C240.625 183.771 224.742 181.474 209.145 177.827C204.153 176.698 199.751 175.907 194.981 173.997C189.793 188.652 183.847 200.861 179.483 216.194C182.336 215.941 190.217 216.08 193.301 216.14C199.9 216.27 209.06 215.833 215.447 216.392C220.907 203.757 238.772 205.338 243.498 217.522C245.089 221.609 244.956 226.166 243.129 230.153C239.229 238.769 229.867 241.01 221.774 237.259C218.407 235.698 216.568 232.79 214.904 229.678C202.467 230.09 188.225 229.868 175.643 229.775C174.144 239.13 172.48 248.248 171.033 257.665ZM379.259 216.395C377.998 211.196 375.069 203.892 373.155 198.824C370.155 190.882 366.671 182.07 362.97 174.419C355.168 176.198 347.77 178.262 339.846 179.89C322.806 183.393 306.837 184.495 289.507 185.326C289.784 189.339 289.673 193.635 289.675 197.686L289.686 216.997C289.685 232.801 289.923 250.752 289.43 266.49C294.186 266.045 302.901 266.217 307.773 266.218L339.328 266.264L368.233 266.202C374.115 266.16 382.692 265.961 388.38 266.357C387.942 262.742 384.182 230.433 382.157 229.74C378.494 229.969 372.83 229.795 369.048 229.8L343.159 229.843C338.104 237.115 333.3 240.716 323.884 238.285C319.884 237.252 316.613 234.114 314.75 230.46C312.852 226.658 312.554 222.253 313.925 218.23C315.292 214.318 318.422 210.597 322.217 208.882C326.172 207.125 330.672 207.053 334.682 208.683C338.49 210.204 340.771 212.601 342.363 216.27C345.751 215.992 352.813 216.131 356.459 216.139C363.619 216.155 372.178 215.897 379.259 216.395ZM214.854 326.638C217.866 322.336 220.767 318.654 226.362 317.679C230.338 316.952 234.438 317.883 237.709 320.256C241.314 322.912 243.716 326.892 244.385 331.319C245.007 335.697 243.821 340.139 241.1 343.624C236.027 350.191 226.107 351.585 219.492 346.555C217.011 344.668 216.008 342.672 214.685 339.935C208.732 340.09 202.776 340.127 196.821 340.047C192.364 339.989 183.737 339.827 179.458 340.257L180.427 343.144C182.992 351.028 185.855 358.813 189.01 366.481C190.891 371.18 193.384 376.614 194.944 381.298C199.818 379.257 205.049 378.315 210.151 377.006C230.06 371.899 248.608 370.147 269.009 369.444C268.688 361.908 268.864 354.147 268.903 346.595L268.863 321.735L268.85 302.573C268.842 298.416 268.726 292.811 269.145 288.726C263.739 289.18 253.495 288.917 247.79 288.901L214.367 288.798C201.837 289.151 189.18 288.768 176.639 288.952C174.493 288.983 172.352 289.015 170.209 288.89C171.77 302.403 172.853 313.541 176.15 326.787C189.067 326.101 202.499 327.223 214.854 326.638ZM326.974 329.176C324.479 330.236 323.294 333.1 324.311 335.613C325.328 338.125 328.172 339.359 330.702 338.385C332.487 337.697 333.718 336.046 333.869 334.139C334.005 332.408 333.228 330.731 331.818 329.716C330.409 328.702 328.572 328.497 326.974 329.176ZM330.633 227.773C333.128 226.85 334.443 224.116 333.606 221.591C332.769 219.065 330.08 217.658 327.528 218.41C325.799 218.919 324.484 220.331 324.1 222.092C323.716 223.854 324.323 225.685 325.684 226.868C327.044 228.051 328.942 228.398 330.633 227.773ZM230.445 338.491C233.123 337.732 234.677 334.943 233.913 332.266C233.149 329.589 230.357 328.04 227.681 328.808C225.012 329.575 223.467 332.358 224.23 335.029C224.992 337.7 227.773 339.249 230.445 338.491ZM230.199 227.897C232.869 227.283 234.524 224.609 233.883 221.946C233.242 219.283 230.551 217.654 227.894 218.322C225.275 218.98 223.675 221.625 224.307 224.251C224.939 226.877 227.568 228.503 230.199 227.897Z"/><path fill="#3B854E" d="M112.479 289.231C121.582 288.972 134.297 288.74 143.373 289.183C143.945 297.639 144.491 305.182 145.837 313.629C149.948 338.157 157.744 361.923 168.96 384.12C170.326 386.846 171.868 390.203 173.347 392.812C165.381 395.96 157.426 398.691 149.652 402.354C149.022 401.399 145.779 396.048 145.193 395.537L144.393 395.417C139.761 389.848 129.304 367.723 126.51 360.355C126.248 359.663 126.484 359.573 126.822 359.038C118.947 338.298 112.137 311.58 112.479 289.231Z"/><path fill="#033522" d="M145.193 395.537L144.393 395.417C139.761 389.848 129.304 367.723 126.51 360.355C126.248 359.663 126.484 359.573 126.822 359.038C130.136 367.198 133.875 375.178 138.025 382.945C140.124 386.849 143.407 391.938 145.193 395.537Z"/><path fill="#3B854E" d="M383.47 163.433L383.564 162.826C385.264 161.934 390.574 159.918 392.517 159.241C397.605 157.469 403.637 155.033 408.769 153.621C412.019 158.331 414.637 164.018 417.359 169.066C429.657 191.874 437.614 215.669 442.019 241.198C443.621 250.481 444.585 256.868 444.967 266.211C435.29 266.238 425.029 266.407 415.402 266.186C414.579 260.698 414.131 255.177 413.278 249.708C411.622 239.697 409.385 229.791 406.579 220.04C405.569 216.449 403.616 209.75 402.243 206.367C402.02 206.797 402.06 206.69 401.701 207.046C401.218 206.66 388.743 172.539 385.843 169.812C385.241 169.246 383.113 164.502 383.47 163.433Z"/><path fill="#033522" d="M402.243 206.367C402.02 206.797 402.06 206.69 401.701 207.046C401.218 206.66 388.743 172.539 385.843 169.812C385.241 169.246 383.113 164.502 383.47 163.433C390.513 174.948 397.698 193.7 402.243 206.367Z"/><path fill="#3B854E" d="M148.098 153.875C152.155 154.109 168.1 160.761 173.162 162.692C169.378 170.844 164.999 180.026 161.74 188.347C152.845 211.062 144.544 242.016 142.932 266.3L138.588 266.28C130.058 266.339 121.527 266.314 112.998 266.204C113.018 231.351 130.29 183.656 148.098 153.875Z"/><path fill="#3B854E" d="M416.307 289.035C426.072 288.958 435.837 289.026 445.6 289.24C445.627 301.305 443.526 312.467 441.177 324.172C435.555 352.185 425.066 375.093 410.636 399.562C410.084 400.604 409.301 401.862 408.694 402.904C403.994 401.484 389.715 395.091 384.935 392.835C397.323 370.772 406.141 346.887 411.063 322.066C412.735 314.02 413.472 305.916 414.336 297.755C414.492 296.281 414.766 290.033 415.281 289.22L416.307 289.035Z"/><path fill="#3B854E" d="M68.2695 289.155C73.6209 288.909 86.6147 288.834 91.9586 289.178C92.7031 303.494 94.0882 316.283 97.2443 330.391C104.061 360.864 118.135 388.067 134.236 414.527C135.329 416.324 144.44 431.888 138.852 432.316C134.808 430.504 123.064 418.425 119.61 414.659C118.614 413.573 115.349 409.727 114.518 409.014C114.164 409.122 113.934 409.13 113.565 409.179C111.742 407.194 110.08 404.672 108.364 402.49C99.847 391.663 92.8795 379.705 86.4914 367.531C85.9616 366.522 85.9199 366.226 86.2995 365.233C85.8018 363.308 84.2639 360.365 83.4059 358.408C81.7799 354.665 80.2682 350.873 78.873 347.038C73.2375 331.179 68.3769 306.047 68.2695 289.155Z"/><path fill="#033522" d="M114.518 409.014C114.164 409.122 113.934 409.13 113.565 409.179C111.742 407.194 110.08 404.672 108.364 402.49C99.847 391.663 92.8795 379.705 86.4914 367.531C85.9616 366.522 85.9199 366.226 86.2995 365.233C94.9949 381.972 102.529 394.404 114.518 409.014Z"/><path fill="#3B854E" d="M416.98 122.286C423.118 125.022 429.357 131.675 433.851 136.574C452.241 156.391 466.673 179.541 476.369 204.778C483.102 222.379 489.473 247.469 489.625 266.491C481.769 266.48 473.913 266.4 466.058 266.252C463.556 240.441 457.729 212.909 447.516 188.986C446.886 187.509 444.239 181.044 443.555 180.005L442.894 179.911C442.124 178.995 441.417 177.273 440.91 176.144C437.915 169.481 434.523 163.054 431.174 156.571C430.99 156.215 431.043 155.171 431.052 154.746C425.739 144.296 417.701 134.315 416.98 122.286Z"/><path fill="#033522" d="M443.555 180.005L442.894 179.911C442.124 178.995 441.417 177.273 440.91 176.144C437.915 169.481 434.523 163.054 431.174 156.571C430.99 156.215 431.043 155.171 431.052 154.746C434.893 161.798 440.721 172.605 443.555 180.005Z"/><path fill="#3B854E" d="M466.34 289.24C472.941 288.995 483.462 288.818 490.03 289.203C489.082 303.85 486.762 318.375 483.102 332.588C474.75 364.399 458.645 393.644 436.228 417.709C431.74 422.471 425.461 429.319 419.809 432.528C419.349 431.785 418.512 430.502 418.429 429.667C417.668 421.973 424.104 414.795 427.536 408.538C426.784 406.548 431.56 400.15 432.638 397.838C433.083 396.884 436.164 391.469 436.726 390.957L437.403 391.33C443.231 381.354 447.597 370.446 451.974 359.775C458.7 343.375 462.073 326.392 464.504 308.903C465.427 302.261 465.582 295.806 466.34 289.24Z"/><path fill="#033522" d="M427.536 408.538C426.784 406.548 431.56 400.15 432.638 397.838C433.083 396.884 436.164 391.469 436.726 390.957L437.403 391.33C434.202 397.116 430.913 402.853 427.536 408.538Z"/><path fill="#3B854E" d="M140.74 122.582L141.005 122.659C141.675 124.384 139.236 131.281 138.398 133.006C135.634 138.694 132.089 144.242 128.897 149.703C111.423 178.965 99.6865 211.29 94.3151 244.947C93.0625 252.52 92.7194 258.961 91.7189 266.286C84.3991 266.235 76.6599 266.543 69.462 266.356C69.0221 266.346 69.2808 266.381 68.7036 266.16C68.3484 265.235 68.694 262.631 68.7825 261.473C69.7418 249.651 71.7413 237.937 74.7576 226.467C83.8571 192.24 101.629 158.387 127.324 133.601C130.795 130.252 136.588 124.992 140.74 122.582Z"/><path fill="#D3B651" d="M181.221 409.945L181.737 409.886C182.854 410.405 188.824 420.469 189.976 422.208C199.288 436.26 209.306 449.127 219.63 462.417C213.245 465.042 210.389 468.312 207.646 474.595C203.019 472.521 198.418 470.389 193.845 468.198C180.586 461.869 163.095 451.826 151.773 442.451C160.06 435.288 163.132 427.587 157.647 417.442C165.714 415.476 173.27 411.926 181.221 409.945Z"/><path fill="#D3B651" d="M376.36 409.74C377.578 409.985 382.411 411.761 383.852 412.254C388.982 414.044 394.141 415.752 399.327 417.376C394.439 427.812 397.226 436.033 406.458 442.495C392.903 453.052 380.46 460.93 364.741 468.208C359.67 470.432 354.282 472.605 349.363 475.116L349.311 474.854L349.219 474.419C347.924 468.089 343.786 465.245 338.636 462.175C347.089 451.617 355.511 440.621 363.381 429.616C367.86 423.352 372.047 416.189 376.36 409.74Z"/><path fill="#D3B651" d="M349.377 83.9277C364.298 89.8263 379.047 96.2773 392.704 104.78C397.03 107.473 401.226 110.379 405.539 113.103C397.473 121.568 394.401 127.57 400.072 138.785L392.946 141.115C386.978 143.217 381.265 144.876 375.389 147.329C368.078 135.106 360.297 123.488 351.907 111.986C348.474 107.279 344.447 101.199 340.63 96.9145C344.666 93.8084 348.225 88.9203 349.377 83.9277Z"/><path fill="#D3B651" d="M207.869 84.2893C208.083 84.6901 208.107 85.5711 208.257 85.9663C210.166 91.0084 211.966 94.0706 216.388 96.8699C212.545 101.257 207.98 107.67 204.55 112.45C196.358 123.696 188.715 135.333 181.649 147.318C176.053 145.209 169.197 143.434 163.164 141.27L156.588 139.029C162.877 129.134 160.294 120.853 152.015 113.446C157.969 109.697 163.186 105.965 169.413 102.4C182.498 94.909 193.904 89.6425 207.869 84.2893Z"/><path fill="#3B854E" d="M343.099 340.018C336.695 353.004 319.584 352.635 314.176 339.982C312.533 336.078 312.543 331.676 314.203 327.78C319.532 314.952 337.94 313.864 342.725 326.73C354.546 326.675 366.424 326.373 378.219 326.467L378.412 327.158C379.026 327.331 381.129 327.194 382.286 327.39L379.788 327.563C380.798 327.85 381.356 328.021 382.324 328.417C383.581 331.117 379.955 337.556 379.506 339.896C377.839 340.224 370.264 340.107 368.124 340.108C359.783 340.148 351.44 340.118 343.099 340.018ZM330.702 338.385C332.487 337.697 333.718 336.046 333.869 334.139C334.005 332.408 333.228 330.731 331.818 329.716C330.409 328.702 328.572 328.497 326.974 329.176C324.479 330.236 323.294 333.1 324.311 335.613C325.328 338.125 328.172 339.359 330.702 338.385Z"/><path fill="#3B854E" d="M343.159 229.843C338.104 237.115 333.3 240.716 323.884 238.285C319.884 237.252 316.613 234.114 314.75 230.46C312.852 226.658 312.554 222.253 313.925 218.23C315.292 214.318 318.422 210.597 322.217 208.882C326.172 207.125 330.672 207.053 334.682 208.683C338.49 210.204 340.771 212.601 342.363 216.27C345.751 215.992 352.813 216.131 356.459 216.139C363.619 216.155 372.178 215.897 379.259 216.395C380.101 218.773 383.537 227.802 382.157 229.74C378.494 229.969 372.83 229.795 369.048 229.8L343.159 229.843ZM330.633 227.773C333.128 226.85 334.443 224.116 333.606 221.591C332.769 219.065 330.08 217.658 327.528 218.41C325.799 218.919 324.484 220.331 324.1 222.092C323.716 223.854 324.323 225.685 325.684 226.868C327.044 228.051 328.942 228.398 330.633 227.773Z"/></svg>